<svg width="16" height="16" viewBox="0 0 16 16" fill="none" xmlns="http://www.w3.org/2000/svg">
<path d="M3.31034 16H5.51724V13.1765H12.1379V11.2941H5.51724V9.41177H10.4828C13.525 9.41177 16 7.30071 16 4.70588C16 2.11106 13.525 0 10.4828 0H4.41379C4.12114 0 3.84047 0.0991596 3.63354 0.275664C3.4266 0.452169 3.31034 0.691561 3.31034 0.941176V7.52941H0V9.41177H3.31034V11.2941H0V13.1765H3.31034V16ZM5.51724 1.88235H10.4828C12.3079 1.88235 13.7931 3.14918 13.7931 4.70588C13.7931 6.26259 12.3079 7.52941 10.4828 7.52941H5.51724V1.88235Z" fill="#EEEEEE"/>
</svg>
