<svg width="61" height="60" viewBox="0 0 61 60" fill="none" xmlns="http://www.w3.org/2000/svg">
<path d="M31.932 34.4327L34.7227 37.2278L31.938 42.8059L29.1981 39.9093L31.932 34.4327V34.4327Z" fill="#333333"/>
<path d="M30.1562 46.3748L27.5472 51.6014L24.8072 48.7046L27.4164 43.4781L30.1562 46.3748V46.3748Z" fill="#333333"/>
<path d="M8.75024 23.7445L11.4561 26.6053L6.25842 29.0951L3.55248 26.2343L8.75024 23.7445V23.7445Z" fill="#333333"/>
<path d="M20.0205 22.5028L15.0056 24.9051L12.2997 22.0444L17.2129 19.6908L20.0205 22.5028Z" fill="#333333"/>
<path d="M24.0947 39.9664L20.7574 44.4231L18.1453 41.6616L21.4826 37.2048L24.0947 39.9664Z" fill="#333333"/>
<path d="M23.7613 34.1616L27.1469 29.6403L29.8213 32.3188L26.3734 36.9231L23.7613 34.1616V34.1616Z" fill="#333333"/>
<path d="M24.9189 27.4083L20.6269 30.8474L18.0429 28.1154L22.2551 24.7403L24.9189 27.4083V27.4083Z" fill="#333333"/>
<path d="M17.6924 33.1982L13.3959 36.6408L10.8119 33.9088L15.1084 30.4663L17.6924 33.1982V33.1982Z" fill="#333333"/>
<path d="M19.3089 11.7993L22.3791 14.8742L25.2712 11.9775C26.4838 10.763 27.9233 9.79961 29.5077 9.14232C31.092 8.48503 32.7901 8.14673 34.505 8.14673C36.2199 8.14673 37.918 8.48503 39.5023 9.14232C41.0867 9.79961 42.5262 10.763 43.7388 11.9775C43.7789 12.0175 43.8176 12.0583 43.8569 12.0987C45.2231 11.1347 46.8275 10.5651 48.495 10.452C50.1624 10.3389 51.8288 10.6868 53.3123 11.4576C54.7958 12.2284 56.0394 13.3925 56.9074 14.8229C57.7754 16.2533 58.2344 17.8951 58.2344 19.5689V47.8125H54.4903V19.5689C54.4903 18.5869 54.2223 17.6235 53.7153 16.783C53.2084 15.9424 52.4816 15.2566 51.6137 14.7997C50.7458 14.3428 49.7697 14.1322 48.7909 14.1907C47.8122 14.2491 46.868 14.5744 46.0604 15.1313C47.3557 17.6029 47.8291 20.4243 47.4115 23.1842C46.9939 25.9441 45.7072 28.4983 43.7388 30.4745L40.8469 33.371L43.6456 36.1743L41.3055 38.518L16.9689 14.143L19.3089 11.7993ZM38.4601 30.4584L41.0914 27.8229C42.8213 26.0698 43.7882 23.7024 43.781 21.2376C43.7738 18.7728 42.793 16.411 41.0529 14.6681C39.3128 12.9252 36.9548 11.9428 34.4939 11.9355C32.033 11.9282 29.6692 12.8966 27.9188 14.6291L25.2876 17.2647L38.4601 30.4584Z" fill="#333333"/>
</svg>
