<svg width="60" height="60" viewBox="0 0 60 60" fill="none" xmlns="http://www.w3.org/2000/svg">
<path d="M20.125 32.285L48.41 7.53752C48.41 7.53752 51.0613 4.88752 53.7138 7.53752C56.3638 10.19 53.7138 12.8413 53.7138 12.8413L28.9625 41.125L20.125 32.285Z" stroke="#333333" stroke-width="5" stroke-linejoin="round"/>
<path d="M28.0811 26.0988L35.1523 33.17" stroke="#333333" stroke-width="5" stroke-linecap="round" stroke-linejoin="round"/>
<path d="M6.86771 38.4725L20.1265 32.285L28.964 41.125L22.7777 54.3825C22.7777 54.3825 16.5902 55.2663 11.2877 49.9638C5.98396 44.66 6.86771 38.4725 6.86771 38.4725V38.4725Z" stroke="#333333" stroke-width="5" stroke-linejoin="round"/>
<path d="M8.63477 45.5438L14.8223 42.8926" stroke="#333333" stroke-width="5" stroke-linecap="round" stroke-linejoin="round"/>
<path d="M15.7061 52.6151L17.4736 49.0801" stroke="#333333" stroke-width="5" stroke-linecap="round" stroke-linejoin="round"/>
<path d="M23.6631 29.1925L27.1981 26.0988L30.7331 23.005" stroke="#333333" stroke-width="5" stroke-linejoin="round"/>
<path d="M38.2451 30.5176L35.1514 34.0538L32.0576 37.5888" stroke="#333333" stroke-width="5" stroke-linejoin="round"/>
</svg>
