<svg width="61" height="60" viewBox="0 0 61 60" fill="none" xmlns="http://www.w3.org/2000/svg">
<g clip-path="url(#clip0_32_217)">
<path d="M58.6092 48.75H57.1115C54.6741 48.75 52.8245 47.7633 51.8614 46.6523C51.0283 45.6902 50.0212 45 48.8876 45H47.3619C46.2284 45 45.2212 45.6902 44.3881 46.6523C43.4268 47.7633 41.5773 48.75 39.1398 48.75C36.7024 48.75 34.8529 47.7633 33.8897 46.6523C33.0566 45.6902 32.0495 45 30.9159 45H29.3902C28.2567 45 27.2495 45.6902 26.4165 46.6523C25.4552 47.7633 23.6056 48.75 21.1682 48.75C18.7307 48.75 16.8812 47.7633 15.918 46.6523C15.0849 45.6902 14.0778 45 12.9442 45H11.4185C10.285 45 9.27781 45.6902 8.44475 46.6523C7.48345 47.7633 5.63387 48.75 3.19645 48.75H1.69881C0.871366 48.75 0.201172 49.5891 0.201172 50.625V54.375C0.201172 55.4109 0.871366 56.25 1.69881 56.25H3.19645C6.81139 56.25 10.0032 54.8215 12.1823 52.5188C14.3614 54.8227 17.5532 56.25 21.1682 56.25C24.7831 56.25 27.9749 54.8215 30.154 52.5188C32.3331 54.8227 35.5249 56.25 39.1398 56.25C42.7548 56.25 45.9466 54.8215 48.1257 52.5188C50.3048 54.8227 53.4966 56.25 57.1115 56.25H58.6092C59.4366 56.25 60.1068 55.4109 60.1068 54.375V50.625C60.1068 49.5891 59.4366 48.75 58.6092 48.75ZM21.1682 45V33.75H39.1398V45C40.9295 45 42.0284 44.2781 42.3588 43.8961C43.2172 42.9047 44.156 42.2156 45.1304 41.7785V15C45.1304 12.9328 46.4745 11.25 48.1257 11.25C49.7768 11.25 51.121 12.9328 51.121 15V16.875C51.121 17.9109 51.7912 18.75 52.6186 18.75H55.6139C56.4414 18.75 57.1115 17.9109 57.1115 16.875V15C57.1115 8.79609 53.081 3.75 48.1257 3.75C43.1704 3.75 39.1398 8.79609 39.1398 15V26.25H21.1682V15C21.1682 12.9328 22.5123 11.25 24.1634 11.25C25.8146 11.25 27.1587 12.9328 27.1587 15V16.875C27.1587 17.9109 27.8289 18.75 28.6564 18.75H31.6516C32.4791 18.75 33.1493 17.9109 33.1493 16.875V15C33.1493 8.79609 29.1188 3.75 24.1634 3.75C19.2081 3.75 15.1776 8.79609 15.1776 15V41.7773C16.152 42.2145 17.0908 42.9047 17.9492 43.8949C18.2796 44.2781 19.3785 45 21.1682 45Z" fill="#333333"/>
</g>
<defs>
<clipPath id="clip0_32_217">
<rect width="59.9057" height="60" fill="white" transform="translate(0.201172)"/>
</clipPath>
</defs>
</svg>
