<svg width="60" height="60" viewBox="0 0 60 60" fill="none" xmlns="http://www.w3.org/2000/svg">
<path d="M30 5.625C26.9156 5.625 24.375 8.16563 24.375 11.25C24.375 13.3594 25.5619 15.2119 27.3056 16.1719L21.795 27.1875L13.1813 21.0356C14.3119 20.0025 15 18.5063 15 16.875C15 13.7906 12.4594 11.25 9.375 11.25C6.29063 11.25 3.75 13.7906 3.75 16.875C3.75 19.4025 5.48625 21.5044 7.7925 22.2075L11.25 41.25V50.625H48.75V41.25L52.2075 22.2075C54.5137 21.5044 56.25 19.4025 56.25 16.875C56.25 13.7906 53.7094 11.25 50.625 11.25C47.5406 11.25 45 13.7906 45 16.875C45 18.5081 45.6881 20.0025 46.8169 21.0356L38.2031 27.1875L32.6944 16.1719C33.5784 15.6886 34.3166 14.977 34.8321 14.1113C35.3476 13.2456 35.6214 12.2575 35.625 11.25C35.625 8.16563 33.0844 5.625 30 5.625ZM30 9.375C31.0556 9.375 31.875 10.1963 31.875 11.25C31.875 12.3056 31.0537 13.125 30 13.125C28.9444 13.125 28.125 12.3037 28.125 11.25C28.125 10.1944 28.9463 9.375 30 9.375ZM9.375 15C10.4306 15 11.25 15.8213 11.25 16.875C11.25 17.9306 10.4287 18.75 9.375 18.75C8.31937 18.75 7.5 17.9287 7.5 16.875C7.5 15.8194 8.32125 15 9.375 15ZM50.625 15C51.6806 15 52.5 15.8213 52.5 16.875C52.5 17.9306 51.6787 18.75 50.625 18.75C49.5694 18.75 48.75 17.9287 48.75 16.875C48.75 15.8194 49.5713 15 50.625 15ZM30 19.2188L35.8012 30.8212L38.6137 31.5244L47.9887 24.8438L45.3506 39.375H14.6494L12.0131 24.8438L21.3881 31.5244L24.2006 30.8212L30 19.2188ZM15 43.125H45V46.875H15V43.125Z" fill="#333333"/>
</svg>
