<svg width="61" height="60" viewBox="0 0 61 60" fill="none" xmlns="http://www.w3.org/2000/svg">
<path d="M11 0L20.1411 23.0222C14.6641 26.5511 11 32.8311 11 40C11 51.0267 19.6504 60 30.285 60C40.9196 60 49.57 51.0267 49.57 40C49.57 32.8333 45.9058 26.5533 40.4289 23.0222L49.57 0H44.9373L36.5548 21.1067C35.127 20.591 33.6453 20.2531 32.1406 20.1L40.1139 0H35.4812L27.4415 20.2444C26.2755 20.4215 25.1278 20.7101 24.0131 21.1067L15.6327 0H11ZM20.4539 0L25.8987 13.72L28.2172 7.88222L25.0888 0H20.4539ZM30.285 24.4444C38.554 24.4444 45.2844 31.4222 45.2844 40C45.2844 48.5778 38.554 55.5556 30.285 55.5556C22.016 55.5556 15.2856 48.5778 15.2856 40C15.2856 31.4222 22.016 24.4444 30.285 24.4444ZM30.285 31.4711L27.7822 37.2933L21.7139 37.9822L26.2566 42.2133L24.9773 48.4578L30.285 45.2844L35.5927 48.4622L34.3156 42.2178L38.8561 37.98L32.7878 37.2911L30.285 31.4689V31.4711Z" fill="#333333"/>
</svg>
