<svg width="44" height="44" viewBox="0 0 44 44" fill="none" xmlns="http://www.w3.org/2000/svg">
<path d="M28.2476 9.18554C28.0488 8.96731 27.7867 8.83272 27.5069 8.80523C27.2272 8.77773 26.9475 8.85907 26.7167 9.03508L26.5487 9.18554L15.7506 21.064C15.5522 21.2827 15.4299 21.5711 15.4049 21.8788C15.3799 22.1865 15.4538 22.4942 15.6138 22.7481L15.7506 22.9329L26.5487 34.8113C26.7603 35.0452 27.0439 35.1833 27.3435 35.1986C27.6431 35.2138 27.9371 35.1051 28.1674 34.8938C28.3978 34.6824 28.5478 34.3839 28.588 34.0569C28.6281 33.7299 28.5555 33.3982 28.3844 33.1272L28.2476 32.9425L18.2965 21.9984L28.2476 11.0544C28.3593 10.9318 28.448 10.7862 28.5085 10.6258C28.569 10.4655 28.6001 10.2936 28.6001 10.12C28.6001 9.94638 28.569 9.77448 28.5085 9.61413C28.448 9.45379 28.3593 9.30814 28.2476 9.18554Z" fill="white"/>
</svg>
