<svg width="127" height="17" viewBox="0 0 127 17" fill="none" xmlns="http://www.w3.org/2000/svg">
<path d="M10.009 15.0983C9.48367 15.4494 8.81038 15.7268 7.98912 15.9304C7.16786 16.1271 6.16164 16.2254 4.97044 16.2254C3.78665 16.2254 2.59175 16.1587 1.38576 16.0252V13.9817C2.46597 14.2134 3.55359 14.3293 4.6486 14.3293C5.74361 14.3293 6.56487 14.2731 7.11237 14.1608C7.65988 14.0414 8.1001 13.8869 8.43305 13.6973C9.04714 13.3462 9.35419 12.8897 9.35419 12.3279C9.35419 11.8925 9.23581 11.5554 8.99905 11.3167C8.62171 10.9445 8.07791 10.6039 7.36763 10.2949L4.52652 9.06245C3.54989 8.62706 2.85811 8.22327 2.45118 7.85107C1.57813 7.05051 1.1416 6.12355 1.1416 5.07018C1.1416 3.98871 1.63732 3.11442 2.62875 2.44728C3.71636 1.71694 5.26269 1.35178 7.26775 1.35178C8.56252 1.35178 9.74632 1.40093 10.8191 1.49925V3.51119C9.90909 3.31456 8.89177 3.21624 7.76716 3.21624C6.64995 3.21624 5.83609 3.27242 5.32558 3.38478C4.82247 3.49012 4.42664 3.62706 4.13809 3.7956C3.61278 4.10459 3.35012 4.51189 3.35012 5.01751C3.35012 5.50908 3.51659 5.91638 3.84954 6.23942C4.14548 6.51329 4.68559 6.8293 5.46986 7.18745L8.38865 8.50416C9.35789 8.93956 10.0349 9.35037 10.4196 9.73661C10.8117 10.1228 11.1003 10.5126 11.2853 10.9058C11.4702 11.2921 11.5627 11.7591 11.5627 12.3068C11.5627 12.8476 11.4369 13.3602 11.1854 13.8448C10.9338 14.3223 10.5417 14.7401 10.009 15.0983Z" fill="#333333"/>
<path d="M15.7955 1.45711H20.1793C23.1018 1.45711 24.9847 2.27874 25.8282 3.922C26.1315 4.52593 26.2832 5.24223 26.2832 6.07088C26.2832 6.89953 26.1278 7.6088 25.8171 8.19869C25.5063 8.78857 25.0883 9.27313 24.563 9.65234C23.542 10.3827 22.1769 10.7478 20.4678 10.7478H18.0151V16.12H15.7955V1.45711ZM20.035 9.06245C21.3742 9.06245 22.3656 8.81666 23.0093 8.32509C23.653 7.83352 23.9748 7.06807 23.9748 6.02874C23.9748 4.64532 23.2978 3.75346 21.9439 3.35318C21.4703 3.21273 20.8969 3.14251 20.2237 3.14251H18.0151V9.06245H20.035Z" fill="#333333"/>
<path d="M29.5283 8.80964C29.5283 7.66498 29.7096 6.62916 30.0721 5.7022C30.4346 4.77523 30.9378 3.9852 31.5814 3.33211C32.9354 1.96975 34.6926 1.28857 36.853 1.28857C39.0209 1.28857 40.7744 1.96975 42.1135 3.33211C43.4749 4.71554 44.1556 6.54138 44.1556 8.80964C44.1556 11.0779 43.4749 12.8967 42.1135 14.2661C40.7818 15.6144 39.0283 16.2886 36.853 16.2886C34.6852 16.2886 32.928 15.6144 31.5814 14.2661C30.2127 12.8897 29.5283 11.0709 29.5283 8.80964ZM31.7479 8.79911C31.7479 10.4002 32.1585 11.724 32.9798 12.7703C33.9046 13.936 35.1957 14.5189 36.853 14.5189C38.5103 14.5189 39.7977 13.936 40.7152 12.7703C41.529 11.738 41.936 10.4213 41.936 8.82018C41.936 7.20501 41.529 5.87425 40.7152 4.8279C39.7977 3.64812 38.5103 3.05824 36.853 3.05824C35.1883 3.05824 33.8972 3.64812 32.9798 4.8279C32.1585 5.87425 31.7479 7.19798 31.7479 8.79911Z" fill="#333333"/>
<path d="M48.3884 1.45711H52.7721C55.6946 1.45711 57.5776 2.27874 58.4211 3.922C58.7244 4.52593 58.8761 5.20711 58.8761 5.96554C58.8761 6.71695 58.7688 7.35248 58.5542 7.87214C58.3471 8.3918 58.0548 8.83773 57.6775 9.20992C56.9524 9.92621 55.9536 10.3967 54.681 10.6214C55.2063 12.1594 56.0979 13.2198 57.3556 13.8026C57.77 13.9992 58.1177 14.1046 58.3989 14.1186C58.8724 14.1327 59.2053 14.1186 59.3977 14.0765V16.12H58.8983C57.2336 16.12 55.8167 15.5582 54.6477 14.4346C53.6193 13.4585 52.9275 12.2296 52.5724 10.7478H50.608V16.12H48.3884V1.45711ZM52.6279 9.06245C53.967 9.06245 54.9585 8.81666 55.6021 8.32509C56.2458 7.83352 56.5677 7.06807 56.5677 6.02874C56.5677 4.64532 55.8907 3.75346 54.5367 3.35318C54.0632 3.21273 53.4898 3.14251 52.8165 3.14251H50.608V9.06245H52.6279Z" fill="#333333"/>
<path d="M66.405 3.31105L61.7549 3.31105V1.45711H73.2747V3.31105H68.6246V16.12H66.405V3.31105Z" fill="#333333"/>
<path d="M77.2079 1.45711H81.5917C84.5141 1.45711 86.3971 2.27874 87.2406 3.922C87.5439 4.52593 87.6956 5.20711 87.6956 5.96554C87.6956 6.71695 87.5883 7.35248 87.3738 7.87214C87.1666 8.3918 86.8743 8.83773 86.497 9.20992C85.7719 9.92621 84.7731 10.3967 83.5005 10.6214C84.0258 12.1594 84.9174 13.2198 86.1752 13.8026C86.5895 13.9992 86.9372 14.1046 87.2184 14.1186C87.6919 14.1327 88.0248 14.1186 88.2172 14.0765V16.12H87.7178C86.0531 16.12 84.6362 15.5582 83.4672 14.4346C82.4388 13.4585 81.747 12.2296 81.3919 10.7478H79.4275V16.12H77.2079V1.45711ZM81.4474 9.06245C82.7865 9.06245 83.778 8.81666 84.4217 8.32509C85.0654 7.83352 85.3872 7.06807 85.3872 6.02874C85.3872 4.64532 84.7102 3.75346 83.3562 3.35318C82.8827 3.21273 82.3093 3.14251 81.636 3.14251H79.4275V9.06245H81.4474Z" fill="#333333"/>
<path d="M91.4623 1.45711L93.6819 1.45711V16.12H91.4623V1.45711Z" fill="#333333"/>
<path d="M98.2477 1.45711H99.8458L107.914 12.2752L107.792 10.7584V1.45711H109.989V16.12H108.402L101.666 7.13478L100.323 5.30192L100.445 7.13478V16.12H98.2477V1.45711Z" fill="#333333"/>
<path d="M126.142 15.9726C125.291 16.1832 124.166 16.2886 122.768 16.2886C121.377 16.2886 120.182 16.1235 119.183 15.7935C118.192 15.4634 117.337 14.9754 116.619 14.3293C115.081 12.9669 114.311 11.0709 114.311 8.6411C114.311 7.05402 114.711 5.68464 115.51 4.53296C116.59 2.96695 118.251 1.96975 120.493 1.54138C121.181 1.41498 122.024 1.35178 123.023 1.35178C124.022 1.35178 124.884 1.39742 125.609 1.48871V3.51119C124.973 3.35669 124.063 3.27945 122.879 3.27945C121.702 3.27945 120.737 3.40585 119.982 3.65866C119.227 3.91147 118.602 4.27313 118.107 4.74363C117.115 5.66357 116.619 6.96273 116.619 8.6411C116.619 10.3476 117.108 11.7134 118.084 12.7387C119.15 13.8553 120.67 14.4136 122.646 14.4136C123.104 14.4136 123.53 14.396 123.922 14.3609V8.95711H126.142V15.9726Z" fill="#333333"/>
<path d="M10.009 15.0983C9.48367 15.4494 8.81038 15.7268 7.98912 15.9304C7.16786 16.1271 6.16164 16.2254 4.97044 16.2254C3.78665 16.2254 2.59175 16.1587 1.38576 16.0252V13.9817C2.46597 14.2134 3.55359 14.3293 4.6486 14.3293C5.74361 14.3293 6.56487 14.2731 7.11237 14.1608C7.65988 14.0414 8.1001 13.8869 8.43305 13.6973C9.04714 13.3462 9.35419 12.8897 9.35419 12.3279C9.35419 11.8925 9.23581 11.5554 8.99905 11.3167C8.62171 10.9445 8.07791 10.6039 7.36763 10.2949L4.52652 9.06245C3.54989 8.62706 2.85811 8.22327 2.45118 7.85107C1.57813 7.05051 1.1416 6.12355 1.1416 5.07018C1.1416 3.98871 1.63732 3.11442 2.62875 2.44728C3.71636 1.71694 5.26269 1.35178 7.26775 1.35178C8.56252 1.35178 9.74632 1.40093 10.8191 1.49925V3.51119C9.90909 3.31456 8.89177 3.21624 7.76716 3.21624C6.64995 3.21624 5.83609 3.27242 5.32558 3.38478C4.82247 3.49012 4.42664 3.62706 4.13809 3.7956C3.61278 4.10459 3.35012 4.51189 3.35012 5.01751C3.35012 5.50908 3.51659 5.91638 3.84954 6.23942C4.14548 6.51329 4.68559 6.8293 5.46986 7.18745L8.38865 8.50416C9.35789 8.93956 10.0349 9.35037 10.4196 9.73661C10.8117 10.1228 11.1003 10.5126 11.2853 10.9058C11.4702 11.2921 11.5627 11.7591 11.5627 12.3068C11.5627 12.8476 11.4369 13.3602 11.1854 13.8448C10.9338 14.3223 10.5417 14.7401 10.009 15.0983Z" stroke="#333333"/>
<path d="M15.7955 1.45711H20.1793C23.1018 1.45711 24.9847 2.27874 25.8282 3.922C26.1315 4.52593 26.2832 5.24223 26.2832 6.07088C26.2832 6.89953 26.1278 7.6088 25.8171 8.19869C25.5063 8.78857 25.0883 9.27313 24.563 9.65234C23.542 10.3827 22.1769 10.7478 20.4678 10.7478H18.0151V16.12H15.7955V1.45711ZM20.035 9.06245C21.3742 9.06245 22.3656 8.81666 23.0093 8.32509C23.653 7.83352 23.9748 7.06807 23.9748 6.02874C23.9748 4.64532 23.2978 3.75346 21.9439 3.35318C21.4703 3.21273 20.8969 3.14251 20.2237 3.14251H18.0151V9.06245H20.035Z" stroke="#333333"/>
<path d="M29.5283 8.80964C29.5283 7.66498 29.7096 6.62916 30.0721 5.7022C30.4346 4.77523 30.9378 3.9852 31.5814 3.33211C32.9354 1.96975 34.6926 1.28857 36.853 1.28857C39.0209 1.28857 40.7744 1.96975 42.1135 3.33211C43.4749 4.71554 44.1556 6.54138 44.1556 8.80964C44.1556 11.0779 43.4749 12.8967 42.1135 14.2661C40.7818 15.6144 39.0283 16.2886 36.853 16.2886C34.6852 16.2886 32.928 15.6144 31.5814 14.2661C30.2127 12.8897 29.5283 11.0709 29.5283 8.80964ZM31.7479 8.79911C31.7479 10.4002 32.1585 11.724 32.9798 12.7703C33.9046 13.936 35.1957 14.5189 36.853 14.5189C38.5103 14.5189 39.7977 13.936 40.7152 12.7703C41.529 11.738 41.936 10.4213 41.936 8.82018C41.936 7.20501 41.529 5.87425 40.7152 4.8279C39.7977 3.64812 38.5103 3.05824 36.853 3.05824C35.1883 3.05824 33.8972 3.64812 32.9798 4.8279C32.1585 5.87425 31.7479 7.19798 31.7479 8.79911Z" stroke="#333333"/>
<path d="M48.3884 1.45711H52.7721C55.6946 1.45711 57.5776 2.27874 58.4211 3.922C58.7244 4.52593 58.8761 5.20711 58.8761 5.96554C58.8761 6.71695 58.7688 7.35248 58.5542 7.87214C58.3471 8.3918 58.0548 8.83773 57.6775 9.20992C56.9524 9.92621 55.9536 10.3967 54.681 10.6214C55.2063 12.1594 56.0979 13.2198 57.3556 13.8026C57.77 13.9992 58.1177 14.1046 58.3989 14.1186C58.8724 14.1327 59.2053 14.1186 59.3977 14.0765V16.12H58.8983C57.2336 16.12 55.8167 15.5582 54.6477 14.4346C53.6193 13.4585 52.9275 12.2296 52.5724 10.7478H50.608V16.12H48.3884V1.45711ZM52.6279 9.06245C53.967 9.06245 54.9585 8.81666 55.6021 8.32509C56.2458 7.83352 56.5677 7.06807 56.5677 6.02874C56.5677 4.64532 55.8907 3.75346 54.5367 3.35318C54.0632 3.21273 53.4898 3.14251 52.8165 3.14251H50.608V9.06245H52.6279Z" stroke="#333333"/>
<path d="M66.405 3.31105L61.7549 3.31105V1.45711H73.2747V3.31105H68.6246V16.12H66.405V3.31105Z" stroke="#333333"/>
<path d="M77.2079 1.45711H81.5917C84.5141 1.45711 86.3971 2.27874 87.2406 3.922C87.5439 4.52593 87.6956 5.20711 87.6956 5.96554C87.6956 6.71695 87.5883 7.35248 87.3738 7.87214C87.1666 8.3918 86.8743 8.83773 86.497 9.20992C85.7719 9.92621 84.7731 10.3967 83.5005 10.6214C84.0258 12.1594 84.9174 13.2198 86.1752 13.8026C86.5895 13.9992 86.9372 14.1046 87.2184 14.1186C87.6919 14.1327 88.0248 14.1186 88.2172 14.0765V16.12H87.7178C86.0531 16.12 84.6362 15.5582 83.4672 14.4346C82.4388 13.4585 81.747 12.2296 81.3919 10.7478H79.4275V16.12H77.2079V1.45711ZM81.4474 9.06245C82.7865 9.06245 83.778 8.81666 84.4217 8.32509C85.0654 7.83352 85.3872 7.06807 85.3872 6.02874C85.3872 4.64532 84.7102 3.75346 83.3562 3.35318C82.8827 3.21273 82.3093 3.14251 81.636 3.14251H79.4275V9.06245H81.4474Z" stroke="#333333"/>
<path d="M91.4623 1.45711L93.6819 1.45711V16.12H91.4623V1.45711Z" stroke="#333333"/>
<path d="M98.2477 1.45711H99.8458L107.914 12.2752L107.792 10.7584V1.45711H109.989V16.12H108.402L101.666 7.13478L100.323 5.30192L100.445 7.13478V16.12H98.2477V1.45711Z" stroke="#333333"/>
<path d="M126.142 15.9726C125.291 16.1832 124.166 16.2886 122.768 16.2886C121.377 16.2886 120.182 16.1235 119.183 15.7935C118.192 15.4634 117.337 14.9754 116.619 14.3293C115.081 12.9669 114.311 11.0709 114.311 8.6411C114.311 7.05402 114.711 5.68464 115.51 4.53296C116.59 2.96695 118.251 1.96975 120.493 1.54138C121.181 1.41498 122.024 1.35178 123.023 1.35178C124.022 1.35178 124.884 1.39742 125.609 1.48871V3.51119C124.973 3.35669 124.063 3.27945 122.879 3.27945C121.702 3.27945 120.737 3.40585 119.982 3.65866C119.227 3.91147 118.602 4.27313 118.107 4.74363C117.115 5.66357 116.619 6.96273 116.619 8.6411C116.619 10.3476 117.108 11.7134 118.084 12.7387C119.15 13.8553 120.67 14.4136 122.646 14.4136C123.104 14.4136 123.53 14.396 123.922 14.3609V8.95711H126.142V15.9726Z" stroke="#333333"/>
</svg>
