<svg width="713" height="208" viewBox="0 0 713 208" fill="none" xmlns="http://www.w3.org/2000/svg">
<path d="M135.08 66.2C145.203 66.2 152.968 68.1413 158.376 72.024C163.853 75.8373 166.592 81.5573 166.592 89.184C166.592 93.344 165.829 96.9147 164.304 99.896C162.848 102.808 160.699 105.2 157.856 107.072C155.083 108.875 151.685 110.192 147.664 111.024C143.643 111.856 139.101 112.272 134.04 112.272H126.032V139H115.944V67.968C118.787 67.2747 121.941 66.824 125.408 66.616C128.944 66.3387 132.168 66.2 135.08 66.2ZM135.912 75.04C131.613 75.04 128.32 75.144 126.032 75.352V103.64H133.624C137.091 103.64 140.211 103.432 142.984 103.016C145.757 102.531 148.08 101.768 149.952 100.728C151.893 99.6187 153.384 98.128 154.424 96.256C155.464 94.384 155.984 91.992 155.984 89.08C155.984 86.3067 155.429 84.0187 154.32 82.216C153.28 80.4133 151.824 78.992 149.952 77.952C148.149 76.8427 146.035 76.08 143.608 75.664C141.181 75.248 138.616 75.04 135.912 75.04ZM301.659 108.84C302.768 110.227 304.155 112.064 305.819 114.352C307.552 116.571 309.32 119.067 311.123 121.84C312.925 124.544 314.693 127.387 316.427 130.368C318.229 133.349 319.755 136.227 321.003 139H309.979C308.592 136.365 307.067 133.696 305.403 130.992C303.808 128.288 302.179 125.723 300.515 123.296C298.851 120.8 297.187 118.477 295.523 116.328C293.928 114.179 292.472 112.307 291.155 110.712C290.253 110.781 289.317 110.816 288.347 110.816C287.445 110.816 286.509 110.816 285.539 110.816H276.491V139H266.403V67.968C269.245 67.2747 272.4 66.824 275.867 66.616C279.403 66.3387 282.627 66.2 285.539 66.2C295.661 66.2 303.357 68.1067 308.627 71.92C313.965 75.7333 316.635 81.4187 316.635 88.976C316.635 93.76 315.352 97.8507 312.787 101.248C310.291 104.645 306.581 107.176 301.659 108.84ZM286.371 75.04C282.072 75.04 278.779 75.144 276.491 75.352V102.496H283.667C287.133 102.496 290.253 102.323 293.027 101.976C295.8 101.629 298.123 100.971 299.995 100C301.936 99.0293 303.427 97.6773 304.467 95.944C305.507 94.1413 306.027 91.784 306.027 88.872C306.027 86.168 305.507 83.9147 304.467 82.112C303.427 80.3093 302.005 78.888 300.203 77.848C298.469 76.808 296.389 76.08 293.963 75.664C291.605 75.248 289.075 75.04 286.371 75.04ZM383.081 66.928V75.664H360.409V139H350.321V75.664H327.649V66.928H383.081ZM432.11 108.84C433.219 110.227 434.606 112.064 436.27 114.352C438.003 116.571 439.771 119.067 441.574 121.84C443.376 124.544 445.144 127.387 446.878 130.368C448.68 133.349 450.206 136.227 451.454 139H440.43C439.043 136.365 437.518 133.696 435.854 130.992C434.259 128.288 432.63 125.723 430.966 123.296C429.302 120.8 427.638 118.477 425.974 116.328C424.379 114.179 422.923 112.307 421.606 110.712C420.704 110.781 419.768 110.816 418.798 110.816C417.896 110.816 416.96 110.816 415.99 110.816H406.942V139H396.854V67.968C399.696 67.2747 402.851 66.824 406.318 66.616C409.854 66.3387 413.078 66.2 415.99 66.2C426.112 66.2 433.808 68.1067 439.078 71.92C444.416 75.7333 447.086 81.4187 447.086 88.976C447.086 93.76 445.803 97.8507 443.238 101.248C440.742 104.645 437.032 107.176 432.11 108.84ZM416.822 75.04C412.523 75.04 409.23 75.144 406.942 75.352V102.496H414.118C417.584 102.496 420.704 102.323 423.478 101.976C426.251 101.629 428.574 100.971 430.446 100C432.387 99.0293 433.878 97.6773 434.918 95.944C435.958 94.1413 436.478 91.784 436.478 88.872C436.478 86.168 435.958 83.9147 434.918 82.112C433.878 80.3093 432.456 78.888 430.654 77.848C428.92 76.808 426.84 76.08 424.414 75.664C422.056 75.248 419.526 75.04 416.822 75.04ZM465.38 66.928H475.468V139H465.38V66.928ZM545.83 139C544.304 136.435 542.536 133.557 540.526 130.368C538.584 127.179 536.47 123.885 534.182 120.488C531.894 117.021 529.502 113.52 527.006 109.984C524.579 106.448 522.152 103.051 519.726 99.792C517.299 96.464 514.942 93.344 512.654 90.432C510.366 87.52 508.251 84.9547 506.31 82.736V139H496.43V66.928H504.438C507.696 70.3947 511.163 74.4507 514.838 79.096C518.582 83.672 522.256 88.4213 525.862 93.344C529.536 98.1973 532.968 102.981 536.158 107.696C539.416 112.411 542.155 116.605 544.374 120.28V66.928H554.254V139H545.83ZM619.206 103.536H629.294V137.232C628.462 137.509 627.248 137.821 625.654 138.168C624.128 138.515 622.326 138.861 620.246 139.208C618.235 139.555 616.016 139.832 613.59 140.04C611.163 140.317 608.702 140.456 606.206 140.456C601.144 140.456 596.534 139.624 592.374 137.96C588.214 136.296 584.643 133.869 581.662 130.68C578.68 127.491 576.358 123.573 574.694 118.928C573.099 114.283 572.302 108.944 572.302 102.912C572.302 96.88 573.203 91.5413 575.006 86.896C576.878 82.1813 579.374 78.2293 582.494 75.04C585.614 71.8507 589.254 69.424 593.414 67.76C597.643 66.096 602.15 65.264 606.934 65.264C610.192 65.264 613.07 65.472 615.566 65.888C618.131 66.304 620.315 66.7893 622.118 67.344C623.92 67.8987 625.376 68.4533 626.486 69.008C627.664 69.5627 628.462 69.9787 628.878 70.256L625.654 78.68C623.643 77.3627 620.974 76.288 617.646 75.456C614.318 74.5547 610.92 74.104 607.454 74.104C603.779 74.104 600.416 74.7627 597.366 76.08C594.384 77.3973 591.819 79.304 589.67 81.8C587.59 84.296 585.96 87.3467 584.782 90.952C583.603 94.488 583.014 98.4747 583.014 102.912C583.014 107.211 583.499 111.128 584.47 114.664C585.51 118.2 587.035 121.251 589.046 123.816C591.126 126.312 593.656 128.253 596.638 129.64C599.688 131.027 603.259 131.72 607.35 131.72C610.262 131.72 612.723 131.581 614.734 131.304C616.814 130.957 618.304 130.645 619.206 130.368V103.536Z" fill="#333333"/>
<path d="M179.425 102.912C179.425 96.7413 180.327 91.2987 182.129 86.584C184.001 81.8693 186.497 77.952 189.617 74.832C192.807 71.6427 196.481 69.2507 200.641 67.656C204.871 66.0613 209.343 65.264 214.057 65.264C218.703 65.264 223.071 66.0613 227.161 67.656C231.321 69.2507 234.961 71.6427 238.081 74.832C241.201 77.952 243.663 81.8693 245.465 86.584C247.337 91.2987 248.273 96.7413 248.273 102.912C248.273 109.083 247.337 114.525 245.465 119.24C243.663 123.955 241.201 127.907 238.081 131.096C234.961 134.216 231.321 136.573 227.161 138.168C223.071 139.763 218.703 140.56 214.057 140.56C209.343 140.56 204.871 139.763 200.641 138.168C196.481 136.573 192.807 134.216 189.617 131.096C186.497 127.907 184.001 123.955 182.129 119.24C180.327 114.525 179.425 109.083 179.425 102.912ZM190.033 102.912C190.033 107.28 190.588 111.267 191.697 114.872C192.807 118.408 194.367 121.424 196.377 123.92C198.457 126.416 200.953 128.357 203.865 129.744C206.847 131.061 210.175 131.72 213.849 131.72C217.524 131.72 220.817 131.061 223.729 129.744C226.641 128.357 229.103 126.416 231.113 123.92C233.193 121.424 234.788 118.408 235.897 114.872C237.007 111.267 237.561 107.28 237.561 102.912C237.561 98.544 237.007 94.592 235.897 91.056C234.788 87.4507 233.193 84.4 231.113 81.904C229.103 79.408 226.641 77.5013 223.729 76.184C220.817 74.7973 217.524 74.104 213.849 74.104C210.175 74.104 206.847 74.7973 203.865 76.184C200.953 77.5013 198.457 79.408 196.377 81.904C194.367 84.4 192.807 87.4507 191.697 91.056C190.588 94.592 190.033 98.544 190.033 102.912Z" fill="#EEEEEE"/>
<path d="M627 132L614.077 140.4C609.404 143.438 605.365 147.355 602.186 151.933L598.967 156.568C596.059 160.756 594.5 165.732 594.5 170.831V170.831C594.5 181.665 601.477 191.266 611.781 194.613L629.257 200.289C644.215 205.147 660.584 202.728 673.498 193.751L678.036 190.597C688.425 183.375 696.33 173.123 700.672 161.239L701.87 157.962C708.951 138.58 707.433 117.099 697.696 98.9065L694 92L683.022 70.0436C674.735 53.4695 657.795 43 639.264 43V43C626.289 43 613.846 48.1543 604.671 57.329L590 72" stroke="#333333"/>
<path d="M74.688 131.824C85.2267 131.824 90.496 128.219 90.496 121.008C90.496 118.789 90.0107 116.917 89.04 115.392C88.1387 113.797 86.8907 112.445 85.296 111.336C83.7013 110.157 81.864 109.152 79.784 108.32C77.7733 107.488 75.624 106.656 73.336 105.824C70.7013 104.923 68.2053 103.917 65.848 102.808C63.4907 101.629 61.4453 100.277 59.712 98.752C57.9787 97.1573 56.592 95.2853 55.552 93.136C54.5813 90.9867 54.096 88.3867 54.096 85.336C54.096 79.0267 56.2453 74.104 60.544 70.568C64.8427 67.032 70.7707 65.264 78.328 65.264C82.696 65.264 86.648 65.7493 90.184 66.72C93.7893 67.6213 96.424 68.6267 98.088 69.736L94.864 77.952C93.408 77.0507 91.224 76.184 88.312 75.352C85.4693 74.4507 82.1413 74 78.328 74C76.3867 74 74.584 74.208 72.92 74.624C71.256 75.04 69.8 75.664 68.552 76.496C67.304 77.328 66.2987 78.4027 65.536 79.72C64.8427 80.968 64.496 82.4587 64.496 84.192C64.496 86.1333 64.8773 87.7627 65.64 89.08C66.4027 90.3973 67.4773 91.576 68.864 92.616C70.2507 93.5867 71.8453 94.488 73.648 95.32C75.52 96.152 77.5653 96.984 79.784 97.816C82.904 99.064 85.7467 100.312 88.312 101.56C90.9467 102.808 93.2 104.299 95.072 106.032C97.0133 107.765 98.504 109.845 99.544 112.272C100.584 114.629 101.104 117.507 101.104 120.904C101.104 127.213 98.7813 132.067 94.136 135.464C89.56 138.861 83.0773 140.56 74.688 140.56C71.8453 140.56 69.2107 140.352 66.784 139.936C64.4267 139.589 62.312 139.173 60.44 138.688C58.568 138.133 56.9387 137.579 55.552 137.024C54.2347 136.4 53.1947 135.88 52.432 135.464L55.448 127.144C57.0427 128.045 59.4693 129.051 62.728 130.16C65.9867 131.269 69.9733 131.824 74.688 131.824Z" fill="#856B4E"/>
<path d="M93.6034 71L98.6674 67.6097C103.217 64.5639 107.152 60.6879 110.266 56.1848L113.553 51.431C116.449 47.2433 118 42.2726 118 37.1812V37.1812C118 26.3376 111.024 16.7247 100.715 13.3623L83.4649 7.73593C68.5289 2.86439 52.1724 5.28749 39.2903 14.2801L34.7663 17.4381C24.4535 24.6371 16.6124 34.8419 12.3122 46.6608L11.069 50.0776C4.02376 69.4409 5.53495 90.8854 15.2261 109.069L18.9198 116L29.7118 137.675C38.0473 154.417 55.1387 165 73.8406 165V165C86.5251 165 99.0505 160.482 108.635 152.173C113.97 147.547 118.011 143.212 118 139" stroke="#856B4E"/>
<path d="M214 139C233.883 139 250 122.883 250 103C250 83.1172 233.883 67 214 67C194.117 67 178 83.1172 178 103C178 122.883 194.117 139 214 139Z" stroke="#856B4E" stroke-width="3.75" stroke-linecap="round" stroke-linejoin="round"/>
<path d="M214 139V67" stroke="#856B4E" stroke-width="3.75" stroke-linecap="round" stroke-linejoin="round"/>
<path d="M249.82 99.4C226.528 109.001 205.706 109.001 178.18 99.4" stroke="#856B4E" stroke-width="3.75" stroke-linecap="round" stroke-linejoin="round"/>
<path d="M237.659 75.8633C228.058 92.1713 228.058 110.866 237.659 130.137" stroke="#856B4E" stroke-width="3.75" stroke-linecap="round" stroke-linejoin="round"/>
<path d="M190.341 75.8633C199.942 92.1713 199.942 110.866 190.341 130.137" stroke="#856B4E" stroke-width="3.75" stroke-linecap="round" stroke-linejoin="round"/>
</svg>
