<svg width="84" height="84" viewBox="0 0 84 84" fill="none" xmlns="http://www.w3.org/2000/svg">
<path d="M41.9999 83.6666C18.9874 83.6666 0.333252 65.0124 0.333252 41.9999C0.333252 18.9874 18.9874 0.333252 41.9999 0.333252C65.0124 0.333252 83.6666 18.9874 83.6666 41.9999C83.6416 64.9999 64.9999 83.6416 41.9999 83.6666ZM8.66658 42.7166C8.76129 51.5256 12.3393 59.9389 18.6186 66.1178C24.8979 72.2966 33.3678 75.7385 42.1772 75.6911C50.9865 75.6438 59.419 72.111 65.6315 65.8651C71.844 59.6191 75.3313 51.1678 75.3313 42.3583C75.3313 33.5487 71.844 25.0974 65.6315 18.8515C59.419 12.6055 50.9865 9.07275 42.1772 9.0254C33.3678 8.97805 24.8979 12.4199 18.6186 18.5988C12.3393 24.7776 8.76129 33.1909 8.66658 41.9999V42.7166ZM33.6666 60.7499V23.2499L58.6666 41.9999L33.6666 60.7499Z" fill="white"/>
</svg>
